<?xml version="1.0" encoding="utf-8"?>
<!-- Generator: Adobe Illustrator 15.0.2, SVG Export Plug-In . SVG Version: 6.00 Build 0)  -->
<!DOCTYPE svg PUBLIC "-//W3C//DTD SVG 1.1//EN" "http://www.w3.org/Graphics/SVG/1.1/DTD/svg11.dtd">
<svg version="1.1" id="Layer_1" xmlns="http://www.w3.org/2000/svg" xmlns:xlink="http://www.w3.org/1999/xlink" x="0px" y="0px"
	 width="930px" height="213.957px" viewBox="0 0 930 213.957" enable-background="new 0 0 930 213.957" xml:space="preserve">
<g>
	<linearGradient id="grey_outline_1_" gradientUnits="userSpaceOnUse" x1="0" y1="106.978" x2="920.0889" y2="106.978">
		<stop  offset="0" style="stop-color:#E6E6E6"/>
		<stop  offset="1" style="stop-color:#CCCCCC"/>
	</linearGradient>
	<path id="grey_outline_2_" fill="url(#grey_outline_1_)" d="M917.808,53.349l-2.235-10.421l-48.357,9.245l-1.354-7.501
		l-49.83,7.852l-1.45-8.287l-48.715,7.578l0.823,5.849c-8.126-7.892-20.316-13.132-37.011-13.132
		c-22.704,0-38.938,6.02-49.402,18.59L691.364,0l-46.81,6.458c-8.314-2.869-18.4-4.518-27.952-4.518
		c-34.35,0-42.688,19.467-46.575,40.476l-0.779,4.152c0,0-35.455-2.037-44.449-2.037c-16.708,0-27.875,2.437-35.431,8.733
		l0.102-0.465l-9.374-3.047c-9.604-3.123-22.832-5.221-32.916-5.221c-23.811,0-36.377,4.939-43.255,18.962
		c-6.632-11.879-20.805-18.962-39.744-18.962c-18.08,0-30.27,4.678-38.61,11.575l-0.266-16.892l-14.938,6.404
		c-3.306,1.417-6.527,2.903-9.814,4.537l0.342-7.522l-37.039,6.273c-0.799-13.493-8.391-38.813-54.02-38.813h-59.757h-1.156h-30.905
		l-1.666,8.919l-4.25,24.203H82.054L76.12,76.993H46.075l-5.93,33.773H10.105L0,167.61h30.033h14.156h15.9h14.146h15.892h14.154
		h29.688h-11.562h50.918l7.336-41.367h17.761c20.659,0,35.334-4.104,45.371-13.307l-9.554,54.674h50.836l11.141-62.692
		c3.817-2.356,6.904-4.204,10.222-6.114l-3.519,20.084c-0.929,4.9-1.4,9.604-1.4,13.979c0,13.738,5.229,36.781,40.245,36.781
		c14.738,0,31.568-3.969,45.321-10.447l6.782,2.996c9.927,4.386,24.393,7.451,35.176,7.451c17.935,0,29.382-3.383,36.967-9.871
		l5.477,2.42c9.928,4.386,24.394,7.451,35.177,7.451c24.68,0,37.088-6.397,44.022-18.508l-0.664,3.742
		c-1.307,7.681-1.847,10.86-10.08,19.262l-7.862,8.021l34.439,31.791l7.406-7.305c16.093-15.879,22.87-27.599,25.905-44.801
		l12.275-70.047h12.223l-13.26,75.806h50.856l4.251-24.204c7.085,16.047,23.964,26.242,45.774,26.242
		c34.334,0,53.932-13.722,61.203-43.077c0.355,9.162,0.571,19.121,0.624,30.191l0.053,10.848h49.53l12.966-23.879l4.537,23.879
		h50.064l22.806-67.5c4.453-11.503,6.355-20.123,6.355-28.783C920.089,64.872,918.992,58.872,917.808,53.349z M557.683,111.705
		c-2.451-8.945-9.381-14.916-20.72-21.562c9.863,0.594,23.643,5.848,23.643,5.848L557.683,111.705z"/>
	<g id="Logo_2_">
		<g id="pressflow_2_">
			<g>
				<g>
					<linearGradient id="SVGID_1_" gradientUnits="userSpaceOnUse" x1="193.6338" y1="12.2637" x2="193.6338" y2="200.1826">
						<stop  offset="0" style="stop-color:#31B3DF"/>
						<stop  offset="1" style="stop-color:#1C6F92"/>
					</linearGradient>
					<path fill="url(#SVGID_1_)" d="M171.524,115.342l-7.335,41.367h-29.957l23.843-135.717h51.76
						c29.14,0,43.201,11.209,43.201,30.567c0,2.854-0.611,7.133-1.223,10.393l-2.648,15.283
						c-4.482,25.269-14.876,38.107-50.742,38.107H171.524z M221.45,63.582c0.408-2.445,0.611-4.483,0.611-5.909
						c0-6.928-4.075-10.189-13.245-10.189h-25.27l-7.335,41.979h24.657c13.857,0,16.914-4.891,18.749-15.08L221.45,63.582z"/>
					<linearGradient id="SVGID_2_" gradientUnits="userSpaceOnUse" x1="281.1382" y1="12.2637" x2="281.1382" y2="200.1827">
						<stop  offset="0" style="stop-color:#31B3DF"/>
						<stop  offset="1" style="stop-color:#1C6F92"/>
					</linearGradient>
					<path fill="url(#SVGID_2_)" d="M315.067,81.515c-12.634,6.928-17.32,9.577-28.733,16.709l-10.393,58.485h-28.732l16.914-96.795
						l25.269-4.279l-0.612,13.449c9.578-5.706,17.321-9.78,25.88-13.449L315.067,81.515z"/>
					<linearGradient id="SVGID_3_" gradientUnits="userSpaceOnUse" x1="354.8062" y1="12.2642" x2="354.8062" y2="200.1833">
						<stop  offset="0" style="stop-color:#31B3DF"/>
						<stop  offset="1" style="stop-color:#1C6F92"/>
					</linearGradient>
					<path fill="url(#SVGID_3_)" d="M318.533,92.928c4.075-22.825,14.265-37.496,45.647-37.496c18.748,0,33.012,8.15,33.012,24.861
						c0,19.358-9.985,28.325-34.439,35.662c-12.023,3.667-12.227,3.667-20.785,5.908l-1.223,6.928
						c-0.612,3.67-0.204,6.929,5.095,6.929c10.392,0,25.472-5.094,38.922-11.003l5.502,20.379
						c-12.023,7.539-30.975,13.652-48.5,13.652c-20.582,0-29.344-8.967-29.344-25.881c0-3.668,0.407-7.743,1.222-12.022
						L318.533,92.928z M370.497,83.35c0-3.464-3.056-5.707-8.354-5.707c-10.393,0-13.45,5.909-14.876,14.061l-1.223,6.928
						c4.891-1.222,7.132-1.63,13.042-3.464C366.829,92.928,370.497,89.259,370.497,83.35z"/>
					<linearGradient id="SVGID_4_" gradientUnits="userSpaceOnUse" x1="437.4995" y1="12.2642" x2="437.4995" y2="200.1833">
						<stop  offset="0" style="stop-color:#31B3DF"/>
						<stop  offset="1" style="stop-color:#1C6F92"/>
					</linearGradient>
					<path fill="url(#SVGID_4_)" d="M398.272,152.226l5.501-21.191c7.54,2.648,16.099,5.093,26.899,5.093
						c9.578,0,10.188-2.853,11.004-7.54c0.815-4.482-2.038-6.928-13.246-12.838c-20.785-11.004-21.601-18.339-18.952-33.215
						c3.872-21.397,10.189-27.103,37.7-27.103c9.375,0,21.397,2.036,29.547,4.686l-4.686,21.601
						c-7.337-2.038-18.138-3.668-25.065-3.668c-8.559,0-9.781,1.019-10.8,6.318c-0.816,4.686,0.203,5.704,9.781,10.799
						c22.823,12.228,26.287,16.507,23.434,32.197c-4.074,22.416-10.596,31.383-40.348,31.383
						C419.873,158.748,407.035,156.099,398.272,152.226z"/>
					<linearGradient id="SVGID_5_" gradientUnits="userSpaceOnUse" x1="515.1191" y1="12.2642" x2="515.1191" y2="200.1833">
						<stop  offset="0" style="stop-color:#31B3DF"/>
						<stop  offset="1" style="stop-color:#1C6F92"/>
					</linearGradient>
					<path fill="url(#SVGID_5_)" d="M475.893,152.226l5.502-21.191c7.54,2.648,16.099,5.093,26.899,5.093
						c9.577,0,10.188-2.853,11.003-7.54c0.816-4.482-2.037-6.928-13.245-12.838c-20.784-11.004-21.6-18.339-18.952-33.215
						c3.873-21.397,10.19-27.103,37.699-27.103c9.375,0,21.397,2.036,29.547,4.686l-4.686,21.601
						c-7.337-2.038-18.137-3.668-25.064-3.668c-8.559,0-9.781,1.019-10.8,6.318c-0.815,4.686,0.203,5.704,9.781,10.799
						c22.822,12.228,26.286,16.507,23.434,32.197c-4.075,22.416-10.597,31.383-40.348,31.383
						C497.493,158.748,484.655,156.099,475.893,152.226z"/>
					<linearGradient id="SVGID_6_" gradientUnits="userSpaceOnUse" x1="843.6729" y1="12.2637" x2="843.6729" y2="200.1827">
						<stop  offset="0" style="stop-color:#31B3DF"/>
						<stop  offset="1" style="stop-color:#1C6F92"/>
					</linearGradient>
					<path fill="url(#SVGID_6_)" d="M809.948,104.542c0,6.521-0.206,13.246-0.815,20.378l24.86-48.092l-3.464-15.692l26.49-4.076
						l12.024,66.636l10.801-41.774c0.815-4.075,1.222-7.132,1.222-10.189c0-3.057-0.406-6.317-1.629-10.8l27.713-5.298
						c1.223,5.706,2.038,10.597,2.038,15.691c0,6.724-1.426,14.062-5.704,25.065l-20.38,60.318h-33.217l-8.559-45.035
						l-24.453,45.035h-32.198c-0.202-41.979-2.647-68.266-6.521-95.776l27.512-4.279C808.316,71.937,809.948,87.221,809.948,104.542
						z"/>
					<linearGradient id="SVGID_7_" gradientUnits="userSpaceOnUse" x1="720.916" y1="12.2642" x2="720.916" y2="200.1833">
						<stop  offset="0" style="stop-color:#31B3DF"/>
						<stop  offset="1" style="stop-color:#1C6F92"/>
					</linearGradient>
					<path fill="url(#SVGID_7_)" d="M673.436,125.533c0-2.243,0.204-4.688,0.612-6.93l4.076-23.027
						c4.482-25.473,16.912-40.144,51.555-40.144c26.696,0,38.719,15.283,38.719,33.012c0,2.241-0.204,4.687-0.611,7.132
						l-4.076,23.027c-4.278,23.842-15.691,40.145-51.76,40.145C686.682,158.748,673.436,143.667,673.436,125.533z M739.665,90.685
						c0-7.335-4.484-11.208-13.856-11.208c-10.802,0-17.118,5.502-18.75,15.284l-4.278,24.658c-0.204,1.426-0.408,2.852-0.408,4.076
						c0,7.131,4.482,11.207,13.858,11.207c11.004,0,17.117-5.503,18.746-15.283l4.28-24.658
						C739.459,93.334,739.665,91.909,739.665,90.685z"/>
					<linearGradient id="SVGID_8_" gradientUnits="userSpaceOnUse" x1="651.041" y1="12.2642" x2="651.041" y2="200.1817">
						<stop  offset="0" style="stop-color:#31B3DF"/>
						<stop  offset="1" style="stop-color:#1C6F92"/>
					</linearGradient>
					<path fill="url(#SVGID_8_)" d="M648.494,16.916l29.547-4.075l-25.269,143.869h-28.731L648.494,16.916z"/>
					<linearGradient id="SVGID_9_" gradientUnits="userSpaceOnUse" x1="594.9004" y1="12.2642" x2="594.9004" y2="200.181">
						<stop  offset="0" style="stop-color:#31B3DF"/>
						<stop  offset="1" style="stop-color:#1C6F92"/>
					</linearGradient>
					<path fill="url(#SVGID_9_)" d="M547.725,181.775c9.985-10.189,11.414-15.487,13.043-25.065l13.45-75.806h-14.265l4.076-23.436
						h14.263l2.447-13.042c4.073-22.008,11.818-31.585,35.863-31.585c8.152,0,17.73,1.427,25.473,4.28l-5.909,22.62
						c-4.483-1.63-12.43-3.057-16.913-3.057c-6.521,0-8.559,1.629-9.578,6.725l-2.648,14.059h25.675l-6.112,23.436H602.95
						l-13.856,79.066c-2.445,13.857-7.336,23.639-22.824,38.922L547.725,181.775z"/>
				</g>
			</g>
			<g>
				<g>
					<path fill="#3C99B6" d="M907.295,156.883h-3.9v-2.326h10.442v2.326h-3.9v11.638h-2.642V156.883z"/>
					<path fill="#3C99B6" d="M924.485,166.718h-3.355l-2.579-7.234l-0.229,9.037h-2.706l0.63-13.964h2.956l3.606,9.917l3.606-9.917
						h2.957L930,168.521h-2.705l-0.23-9.037L924.485,166.718z"/>
				</g>
			</g>
		</g>
		<g id="bars_2_">
			<g>
				<linearGradient id="SVGID_10_" gradientUnits="userSpaceOnUse" x1="79.9604" y1="20.9922" x2="79.9604" y2="156.71">
					<stop  offset="0" style="stop-color:#31B3DF"/>
					<stop  offset="1" style="stop-color:#1C6F92"/>
				</linearGradient>
				<path fill="url(#SVGID_10_)" d="M126.586,20.992l-0.142,0.818l-2.13,12.141l-0.315,1.817L121.74,48.59l-0.034,0.204
					l-1.979,11.25l-0.804,4.598l-1.959,11.127l-0.611,3.515l-0.882,5.039l-1.94,11.005l-1.307,7.429l-1.024,5.843l-0.241,1.373
					l-2.822,16.053l-0.653,3.712l-0.55,3.138l-1.365,7.794l-2.823,16.041h20.72l2.816-16.041l1.368-7.794l0.556-3.138l0.65-3.712
					l2.819-16.053l0.243-1.373l1.027-5.843l1.299-7.429l1.938-11.005l0.882-5.039l0.623-3.515l1.954-11.127l0.807-4.598l1.979-11.25
					l0.031-0.204l2.255-12.822l0.318-1.817l2.13-12.141l0.148-0.818H126.586z M104.2,95.328l1.934-11.005l0.891-5.039l0.609-3.515
					l1.962-11.127l0.804-4.598l0.927-5.268H90.607l-0.924,5.268l-0.81,4.598L86.92,75.77l-0.617,3.515l-0.888,5.039l-1.932,11.005
					l-1.301,7.429l-1.03,5.843l-0.246,1.373l-2.813,16.053l-0.653,3.712l-0.55,3.138l-1.37,7.794l-2.817,16.041h20.717l2.82-16.041
					l1.368-7.794l0.553-3.138l0.65-3.712l2.819-16.053l0.246-1.373l1.021-5.843L104.2,95.328z M74.156,95.328l1.192-6.772H54.626
					l-1.189,6.772l-1.301,7.429l-1.028,5.843l-0.243,1.373l-2.819,16.053l-0.653,3.712l-0.548,3.138l-1.368,7.794l-2.825,16.041
					h20.719l2.82-16.041l1.373-7.794l0.548-3.138l0.653-3.712l2.819-16.053l0.238-1.373l1.03-5.843L74.156,95.328z M18.002,126.025
					l-0.653,3.712l-0.55,3.138l-1.371,7.794l-2.816,16.041h20.714l2.82-16.041l1.367-7.794l0.556-3.138l0.645-3.712l0.653-3.697
					H18.653L18.002,126.025z"/>
			</g>
		</g>
	</g>
</g>
</svg>
